<svg id="Component_5_1" data-name="Component 5 – 1" xmlns="http://www.w3.org/2000/svg" xmlns:xlink="http://www.w3.org/1999/xlink" width="693.379" height="633.667" viewBox="0 0 693.379 633.667">
  <defs>
    <linearGradient id="linear-gradient" x1="0.423" y1="0.465" x2="0.947" y2="0.696" gradientUnits="objectBoundingBox">
      <stop offset="0" stop-color="#0c0265"/>
      <stop offset="0" stop-color="#0d0367"/>
      <stop offset="0.979" stop-color="#110673"/>
      <stop offset="1" stop-color="#1a0f91"/>
    </linearGradient>
  </defs>
  <path id="Path_31" data-name="Path 31" d="M4,0H4L0,85" transform="matrix(0.985, 0.174, -0.174, 0.985, 174.475, 534.463)" fill="none" stroke="#4042e2" stroke-width="6"/>
  <line id="Line_8" data-name="Line 8" x2="3.031" y2="71.153" transform="translate(375.533 547.397)" fill="none" stroke="#4042e2" stroke-width="6"/>
  <g id="Component_4_1" data-name="Component 4 – 1" transform="translate(65.168)">
    <path id="Path_28" data-name="Path 28" d="M49.761,0H536.737c21.22,0,38.423,13.578,38.423,30.328V510.853c0,16.75-17.2,30.328-38.423,30.328l-502.855-1.3c-21.22,0-35.98-31.939-35.98-48.689L11.339,30.328C11.339,13.578,28.541,0,49.761,0Z" transform="translate(20.984 0.073) rotate(2)" fill="#4447ea"/>
    <g id="Path_27" data-name="Path 27" transform="translate(37.606 26.607) rotate(1)" fill="#bdd0fb">
      <path d="M 461.4524230957031 497.8648071289062 L 32.71547317504883 484.6059265136719 L 32.70000839233398 484.60546875 L 32.68453979492188 484.60546875 C 28.98267555236816 484.60546875 25.47200775146484 483.9804077148438 22.24994087219238 482.7477416992188 C 19.32220840454102 481.6275939941406 16.56120872497559 479.9787292480469 14.04360866546631 477.8468017578125 C 9.769742012023926 474.2277221679688 6.103408336639404 469.1647338867188 3.146408319473267 462.7986145019531 C -1.692133069038391 452.3816223144531 -3.023231506347656 441.8484191894531 -3.145020246505737 440.811279296875 L 23.6218090057373 44.52073669433594 L 23.62407493591309 44.4870719909668 L 23.62407493591309 44.45333862304688 C 23.62407493591309 38.62333679199219 25.11767578125 32.96440505981445 28.06340789794922 27.63373756408691 C 30.92140769958496 22.4618034362793 35.01907348632812 17.81227111816406 40.2425422668457 13.81413650512695 C 45.48587417602539 9.800936698913574 51.59607315063477 6.648603439331055 58.40360641479492 4.444736957550049 C 65.46407318115234 2.159003496170044 72.96640777587891 1.000003576278687 80.70220947265625 1.000003576278687 L 461.4367370605469 1.000003576278687 C 469.1725463867188 1.000003576278687 476.6748657226562 2.159003496170044 483.7354125976562 4.444736957550049 C 490.5428771972656 6.648603439331055 496.6531372070312 9.800936698913574 501.8964233398438 13.81413650512695 C 507.1199340820312 17.81227111816406 511.2176208496094 22.46187019348145 514.0756225585938 27.63373756408691 C 517.0213623046875 32.96440505981445 518.5149536132812 38.62333679199219 518.5149536132812 44.45333862304688 L 518.5149536132812 454.4115295410156 C 518.5149536132812 460.2415466308594 517.0213623046875 465.9004821777344 514.0756225585938 471.2310791015625 C 511.2176208496094 476.4030151367188 507.1199340820312 481.0525512695312 501.8964233398438 485.0506591796875 C 496.6531372070312 489.0638732910156 490.5428771972656 492.2162170410156 483.7354125976562 494.4200744628906 C 476.6796264648438 496.7042541503906 469.1826477050781 497.8632507324219 461.4524230957031 497.8648071289062 Z" stroke="none"/>
      <path d="M 80.70220947265625 2 C 73.07119750976562 2 65.6724853515625 3.142608642578125 58.71160888671875 5.396148681640625 C 52.01254272460938 7.56488037109375 46.00314331054688 10.66427612304688 40.850341796875 14.6082763671875 C 35.73715209960938 18.52194213867188 31.72946166992188 23.06707763671875 28.93869018554688 28.11740112304688 C 26.07568359375 33.2982177734375 24.62408447265625 38.79440307617188 24.62408447265625 44.45327758789062 L 24.62408447265625 44.520751953125 L -2.14093017578125 440.7857360839844 C -2.06195068359375 441.4371643066406 -1.7274169921875 443.9784545898438 -0.93121337890625 447.4872131347656 C -0.083740234375 451.2214660644531 1.47589111328125 456.8509521484375 4.093353271484375 462.4631958007812 C 6.99041748046875 468.6749877929688 10.5679931640625 473.6044616699219 14.72674560546875 477.1148071289062 C 17.1546630859375 479.1641235351562 19.81393432617188 480.7481384277344 22.63088989257812 481.8226623535156 C 25.73175048828125 483.005615234375 29.11428833007812 483.6054077148438 32.68453979492188 483.6054077148438 L 32.746337890625 483.6063232421875 L 461.4680480957031 496.8648071289062 C 469.0882568359375 496.8617248535156 476.475830078125 495.7191772460938 483.4273986816406 493.4686584472656 C 490.1264038085938 491.2999267578125 496.1358032226562 488.2005310058594 501.2886047363281 484.2565307617188 C 506.4017944335938 480.3428649902344 510.4095458984375 475.7977294921875 513.2003173828125 470.7474060058594 C 516.0632934570312 465.5665893554688 517.5149536132812 460.0704040527344 517.5149536132812 454.4115295410156 L 517.5149536132812 44.45327758789062 C 517.5149536132812 38.79440307617188 516.0632934570312 33.2982177734375 513.2003173828125 28.11740112304688 C 510.4095458984375 23.06707763671875 506.4017944335938 18.52194213867188 501.2886047363281 14.6082763671875 C 496.1358032226562 10.66427612304688 490.1264038085938 7.56488037109375 483.4273986816406 5.396148681640625 C 476.4664916992188 3.142608642578125 469.0678100585938 2 461.4367370605469 2 L 80.70220947265625 2 M 80.70220947265625 0 L 461.4367370605469 0 C 493.5124206542969 0 519.5149536132812 19.90240478515625 519.5149536132812 44.45327758789062 L 519.5149536132812 454.4115295410156 C 519.5149536132812 478.96240234375 493.5124206542969 498.8648071289062 461.4367370605469 498.8648071289062 L 32.68453979492188 485.6054077148438 C 0.60888671875 485.6054077148438 -4.1488037109375 440.8342590332031 -4.1488037109375 440.8342590332031 L 22.62408447265625 44.45327758789062 C 22.62408447265625 19.90240478515625 48.62655639648438 0 80.70220947265625 0 Z" stroke="none" fill="#e4e9fa"/>
    </g>
    <line id="Line_9" data-name="Line 9" x2="18" y2="85.653" transform="translate(435.897 547.397)" fill="none" stroke="#4042e2" stroke-width="6"/>
    <path id="Path_141" data-name="Path 141" d="M153.9,844.4c-19.3,200.706-459.62,347.909-459.62,347.909l162.4,6.724S127.5,1162.669,179.482,861.943c-28.65-73.09-25.586,0-25.586,0S140.721,748.8,153.9,844.4Z" transform="translate(400.27 -573.556)" fill="#fe7c6f" stroke="#fe7c6f" stroke-width="1"/>
    <path id="Polygon_1" data-name="Polygon 1" d="M47.061,14.868a9,9,0,0,1,15.878,0L102.93,89.761A9,9,0,0,1,94.991,103H15.009A9,9,0,0,1,7.07,89.761Z" transform="translate(518.479 185.852) rotate(4)" fill="#fe7c6f"/>
  </g>
  <g id="Component_2_1" data-name="Component 2 – 1" transform="translate(62.416 399.191)">
    <path id="Path_75" data-name="Path 75" d="M-328.937,49.142l87.316,1.8s-.666,5.388-3.392,4.853-78.84-.5-82.045-2.025A3.519,3.519,0,0,1-328.937,49.142Z" transform="translate(329.209 -12.509)" fill="#7d97f4"/>
    <path id="Path_76" data-name="Path 76" d="M0,0,16.5,33.129" transform="translate(67.259 42.567)" fill="none" stroke="#7d97f4" stroke-width="1.5"/>
    <path id="Path_77" data-name="Path 77" d="M20.6-1,.228,32.09" transform="translate(6.66 42.595)" fill="none" stroke="#7d97f4" stroke-width="1.5"/>
    <path id="Path_78" data-name="Path 78" d="M0,0,17.806,33.964" transform="translate(6.888 40.72)" fill="none" stroke="#7d97f4" stroke-width="1.5"/>
    <g id="Rectangle_24" data-name="Rectangle 24" transform="translate(26.16 50.685)" fill="#7d97f4" stroke="#7d97f4" stroke-width="1">
      <rect width="16" height="4" rx="2" stroke="none"/>
      <rect x="0.5" y="0.5" width="15" height="3" rx="1.5" fill="none"/>
    </g>
    <path id="Path_79" data-name="Path 79" d="M-184.919,82.881V65.58" transform="translate(219.174 -10.895)" fill="none" stroke="#7d97f4" stroke-width="1.5"/>
    <path id="Path_80" data-name="Path 80" d="M-289.385,89.147h-17.349s-.036-.242.4-.558,16.2,0,16.2,0A.722.722,0,0,1-289.385,89.147Z" transform="translate(332.894 -16.282)" fill="none" stroke="#7d97f4" stroke-width="2"/>
    <path id="Path_84" data-name="Path 84" d="M-299,60.7l6.812.828s-2.96,5.645-3.489,8.282c-.609,2.071-.16,5.875-.329,8.039-.2,2.591-1.583,3.617-1.583,4.427s3.855,4.628,3.855,4.628l4.756-.487-3.209-1.827-2.558-5.4s1.784-4.951,3.453-10.6,2.479-10.225,2.314-10.919-5.767-.974-5.767-.974Z" transform="translate(343.411 -12.085)" fill="#ff9692" stroke="#ff9692" stroke-width="1"/>
    <path id="Path_85" data-name="Path 85" d="M-297.21,81.705a.84.84,0,0,0-1.212,0,52.72,52.72,0,0,0,4.559,5.107,24.361,24.361,0,0,0,5.818,0c.387-.235-2.268-1.356-2.268-1.356a2.7,2.7,0,0,1-3.128.215C-295.2,84.652-296.619,82.21-297.21,81.705Z" transform="translate(343.74 -11.91)" fill="#4447ea" stroke="#4447ea" stroke-width="1"/>
    <path id="Path_87" data-name="Path 87" d="M-294.941,46.6l-2.236-1.3-3.479,1.3s-9.274.384-10.885-.371-2.1-.663-2.1-.663-.542,2.545.315,2.915,17.9,0,17.9,0Z" transform="translate(341.082 -11.68)" fill="#feb3b0" stroke="#feb3b0" stroke-width="1"/>
    <path id="Path_82" data-name="Path 82" d="M-298.639,60.48s4.448.672,5.929,0c.609-.276.244,5.355,2.586,10.1,1.331,2.7,3.588,4.317,5.633,6.6a19.439,19.439,0,0,1,3.271,5.558s-1.044,3.87-1.113,3.674,9.058,0,9.058,0l-4.795-3.674s-2.734-5.938-5.741-12.155a129.478,129.478,0,0,0-6.905-12.223c-.763-.844-4.81-1.092-4.81-1.092Z" transform="translate(343.253 -12.13)" fill="#ffa09e" stroke="#ffa09e" stroke-width="1"/>
    <path id="Path_83" data-name="Path 83" d="M-279.3,83.7c-.137-.241-1.1,2.033-.323,2.177s11.623.4,12.077.279-4.933-3.355-4.888-2.825c0,0,.1-.036-.849.715S-279.3,83.7-279.3,83.7Z" transform="translate(340.297 -11.289)" fill="#4447ec" stroke="#4447ec" stroke-width="1"/>
    <line id="Line_20" data-name="Line 20" x1="16.227" y2="33.307" transform="translate(64.66 41.878)" fill="none" stroke="#7d97f4" stroke-width="1.5"/>
    <path id="Path_81" data-name="Path 81" d="M-315,54.76s-4.542,5.593-1.158,6.9,15.018.262,15.018.262l7.18-6.466Z" transform="matrix(1, -0.017, 0.017, 1, 342.259, -17.363)" fill="#fe827a" stroke="#fe827a" stroke-width="1"/>
    <path id="Path_74" data-name="Path 74" d="M-307,49.142c0,.059,12.626.238,12.626.238s18.561.683,19.325.38,6.168-14.535,5.786-15.355-17.752-1.494-18.978-.82-6.085,15.242-6.132,15.557H-307Z" transform="translate(340.78 -11.888)" stroke="#0c0265" stroke-width="1" fill="url(#linear-gradient)"/>
    <g id="Ellipse_3" data-name="Ellipse 3" transform="translate(60.16 27.685)" fill="#4548ed" stroke="#4548ed" stroke-width="1">
      <ellipse cx="1.5" cy="2" rx="1.5" ry="2" stroke="none"/>
      <ellipse cx="1.5" cy="2" rx="1" ry="1.5" fill="none"/>
    </g>
    <path id="Path_90" data-name="Path 90" d="M-83.672-107.26a4.008,4.008,0,0,0,1.441-1.935c.36-1.2-.649-2.21-1.441-2.709s-3.621-1.254-5.13-.377-3.395,1.264-4.017,4.093-.43,4.156-3.275,7.723-5.552,3.944-7.652,7.105-1.036,4.216-.75,5.54,1.771,3,2.681,4.206a2.384,2.384,0,0,0,2.141,1.32,6.264,6.264,0,0,0,2.329.377c.306.025,2.246-.873,3.772-.8,2.745.136,1.74,0,1.74,0Z" transform="translate(124.16 112.685)" fill="#0f0671" stroke="#0f0671" stroke-width="1"/>
    <path id="Path_86" data-name="Path 86" d="M-302.987,46.044h0s.888-.8,2.3-2.2a33.084,33.084,0,0,0,5.41-6.6c1.8-3.477-4.131-10.952-4.316-10.936l-1.241-.018-3.529.018c-.109.119-2.14,1.742-4.126,6.539s-4.979,12.1-4.979,12.1l2.065.483s3.74-9.83,4.345-9.753-2.468,10.108-2.468,10.108Z" transform="translate(341.083 -11.411)" fill="#fe7467" stroke="#fe7467" stroke-width="1"/>
    <path id="Path_88" data-name="Path 88" d="M-306,25.321a5.385,5.385,0,0,0,1.911.221,6.148,6.148,0,0,0,1.6-.221c.135-.406.819-3.668.819-3.668a8.759,8.759,0,0,1-1.833.134,6.923,6.923,0,0,1-1.6-.3S-305.979,25.219-306,25.321Z" transform="translate(343.23 -10.657)" fill="#ffa2a0" stroke="#ffa2a0" stroke-width="1"/>
    <path id="Path_89" data-name="Path 89" d="M-306.828,19.8c-.194.693,1.7,1.56,1.7,1.56a4.352,4.352,0,0,0,1.849.558,7.027,7.027,0,0,0,2.21-.367l.064,0a4.069,4.069,0,0,0,1.421-.8,1.354,1.354,0,0,0,.25-1.382h0a6.852,6.852,0,0,0-1.735-3.343,9.154,9.154,0,0,0-2.75-1.924,5.9,5.9,0,0,0-2.716,1.213c-.838.886.016,2.008-.173,2.58s-.253-.058-.585-.291a2.3,2.3,0,0,0-1.02-.241c-.626-.053-.186,0-.186,0a.6.6,0,0,0-.216,1.043C-308.249,18.78-306.635,19.1-306.828,19.8Z" transform="translate(343.042 -10.673)" fill="#feaaa8" stroke="#feaaa8" stroke-width="1"/>
    <path id="Path_91" data-name="Path 91" d="M-90.17-110.464s.667-.813.179-.218a11.572,11.572,0,0,0-1.814,2.746c-.679,1.553-.431,1.832-1.082,3.683a19.893,19.893,0,0,1-1.786,3.61s-2.009,3.08-4.352,4.09a9.425,9.425,0,0,0-3.543,2.588,5.9,5.9,0,0,0-1.5,2.952,5.1,5.1,0,0,0,1.045,3.615c-.009-.009-.44-.656-.44-.656" transform="translate(124.16 112.685)" fill="none" stroke="#fff" stroke-width="0.5"/>
    <path id="Path_92" data-name="Path 92" d="M-91.141-102.9A11.466,11.466,0,0,1-93.8-97.661c-2.3,2.71-4.03,3.1-5.481,4.427s-1.06,4.141-1.06,4.141" transform="translate(124.16 112.685)" fill="none" stroke="#fff" stroke-width="0.5"/>
  </g>
  <g id="Component_3_1" data-name="Component 3 – 1" transform="translate(0 474.888)">
    <path id="Path_10" data-name="Path 10" d="M-41.368,152.845c5.658,0,213.743,3.682,224.346-3.349s4.041-33.269,0-42.409-229.759,0-229.759,0,2.583,9.5,14.884,9.5,181.293-2.992,188.575,0,8.143,20.419,0,23.935S-18,142.449-31.9,145.441-47.026,152.845-41.368,152.845Z" transform="translate(46.78 -8.791)" fill="#1a0f91"/>
    <path id="Path_11" data-name="Path 11" d="M-65.964,216.223c-7.316-3.662,188.5-4.068,191.795,0s3.292,16.787,0,22.686-186.918,2.2-186.918,2.2S-58.648,219.884-65.964,216.223Z" transform="translate(82.4 -107.598)" fill="#7d97f4" stroke="#7d97f4" stroke-width="1"/>
    <path id="Path_12" data-name="Path 12" d="M133,0" transform="translate(29.9 107.135)" fill="none" stroke="#fff" stroke-width="1"/>
    <line id="Line_2" data-name="Line 2" x2="181" y2="0.236" transform="translate(24.2 123.266)" fill="none" stroke="#fff" stroke-width="1"/>
    <line id="Line_3" data-name="Line 3" x2="181" transform="translate(23.2 115.887)" fill="none" stroke="#fff" stroke-width="1"/>
    <line id="Line_4" data-name="Line 4" x2="181" transform="translate(23.7 110.642)" fill="none" stroke="#fff" stroke-width="1"/>
    <path id="Path_37" data-name="Path 37" d="M0,1.648,140.7.367,181,0" transform="translate(23.2 128.135)" fill="none" stroke="#fff" stroke-width="1"/>
    <g id="Rectangle_5" data-name="Rectangle 5" transform="translate(26.7 54.224)" fill="#4042e2" stroke="#4042e2" stroke-width="1">
      <rect width="196" height="43" rx="7" stroke="none"/>
      <rect x="0.5" y="0.5" width="195" height="42" rx="6.5" fill="none"/>
    </g>
    <g id="Rectangle_6" data-name="Rectangle 6" transform="translate(23.7 27.224)" fill="#4f52ff" stroke="#4f52ff" stroke-width="1">
      <rect width="196" height="27" rx="6" stroke="none"/>
      <rect x="0.5" y="0.5" width="195" height="26" rx="5.5" fill="none"/>
    </g>
    <g id="Path_13" data-name="Path 13" transform="translate(193.7 61.224)" fill="#7d97f4">
      <path d="M 16 25.5 L 2 25.5 C 1.172899961471558 25.5 0.5 24.82710075378418 0.5 24 L 0.5 2 C 0.5 1.172899961471558 1.172899961471558 0.5 2 0.5 L 16 0.5 C 16.82710075378418 0.5 17.5 1.172899961471558 17.5 2 L 17.5 24 C 17.5 24.82710075378418 16.82710075378418 25.5 16 25.5 Z" stroke="none"/>
      <path d="M 2 1 C 1.448600769042969 1 1 1.448600769042969 1 2 L 1 24 C 1 24.55139923095703 1.448600769042969 25 2 25 L 16 25 C 16.55139923095703 25 17 24.55139923095703 17 24 L 17 2 C 17 1.448600769042969 16.55139923095703 1 16 1 L 2 1 M 2 0 L 16 0 C 17.10457038879395 0 18 0.8954296112060547 18 2 L 18 24 C 18 25.10457038879395 17.10457038879395 26 16 26 L 2 26 C 0.8954296112060547 26 0 25.10457038879395 0 24 L 0 2 C 0 0.8954296112060547 0.8954296112060547 0 2 0 Z" stroke="none" fill="#7d97f4"/>
    </g>
    <g id="Rectangle_8" data-name="Rectangle 8" transform="translate(179.7 61.224)" fill="#7d97f4" stroke="#7d97f4" stroke-width="1">
      <rect width="11" height="26" rx="2" stroke="none"/>
      <rect x="0.5" y="0.5" width="10" height="25" rx="1.5" fill="none"/>
    </g>
    <g id="Rectangle_9" data-name="Rectangle 9" transform="translate(197.7 30.224)" fill="#91b3fa" stroke="#91b3fa" stroke-width="1">
      <rect width="14" height="19" rx="2" stroke="none"/>
      <rect x="0.5" y="0.5" width="13" height="18" rx="1.5" fill="none"/>
    </g>
    <g id="Rectangle_10" data-name="Rectangle 10" transform="translate(184.7 30.224)" fill="#91b3fa" stroke="#91b3fa" stroke-width="1">
      <rect width="9" height="19" rx="2" stroke="none"/>
      <rect x="0.5" y="0.5" width="8" height="18" rx="1.5" fill="none"/>
    </g>
    <path id="Path_17" data-name="Path 17" d="M132.59,37.915Z" transform="translate(70.7 -20.776)" fill="none" stroke="#707070" stroke-width="1"/>
    <path id="Path_33" data-name="Path 33" d="M-43.01,135.323c3.941,0,136.681.574,144.066-3.749s1.656-23.135,1.656-23.135l-149.491-1.25s-2.715,5.84,5.852,5.84,130.775-1.839,135.847,0,5.671,12.554,0,14.716c-4.407,1.679-75.41,1.465-111.6,2.152-10.131.192-17.576.463-19.735.873C-46.095,132.61-46.951,135.323-43.01,135.323Z" transform="translate(137.489 135.348) rotate(180)" fill="#7d97f4"/>
    <path id="Path_34" data-name="Path 34" d="M107.378,14.1c-2.439-2.593-1.467,17.312,1.57,18.436s-126.683,2.333-135.288,0-5.2-14.087-2.163-15.557S109.817,16.693,107.378,14.1Z" transform="translate(70.7 -10.153)" fill="#91b3fa" stroke="#91b3fa" stroke-width="1"/>
    <line id="Line_12" data-name="Line 12" x2="132" transform="translate(43.3 8.198)" fill="none" stroke="#7e97f4" stroke-width="1"/>
    <line id="Line_13" data-name="Line 13" x2="132" transform="translate(43.7 16.338)" fill="none" stroke="#7e97f4" stroke-width="1"/>
    <line id="Line_14" data-name="Line 14" x2="128.5" y2="0.879" transform="translate(46.7 19.845)" fill="none" stroke="#7e97f4" stroke-width="1"/>
    <line id="Line_15" data-name="Line 15" x2="132" transform="translate(43.3 11.704)" fill="none" stroke="#7e97f4" stroke-width="1"/>
  </g>
</svg>
